<svg xmlns="http://www.w3.org/2000/svg" xmlns:xlink="http://www.w3.org/1999/xlink" viewBox="0,0,256,256" width="24px" height="24px" fill-rule="nonzero"><g fill="#eeeeee" fill-rule="nonzero" stroke="none" stroke-width="1" stroke-linecap="butt" stroke-linejoin="miter" stroke-miterlimit="10" stroke-dasharray="" stroke-dashoffset="0" font-family="none" font-weight="none" font-size="none" text-anchor="none" style="mix-blend-mode: normal"><g transform="scale(10.66667,10.66667)"><path d="M5,3c-1.103,0 -2,0.897 -2,2v14c0,1.103 0.897,2 2,2h6.62109h2.79297h4.58594c1.103,0 2,-0.897 2,-2v-14c0,-1.103 -0.897,-2 -2,-2zM5,5h14l0.00195,14h-4.58789v-3.96484h2.36524l0.35156,-2.72461h-2.70117v-1.73633c0,-0.788 0.21961,-1.32031 1.34961,-1.32031h1.42773v-2.43164c-0.695,-0.071 -1.3928,-0.10552 -2.0918,-0.10352c-2.074,0 -3.49414,1.26584 -3.49414,3.58984v2.00586h-2.34375v2.72461h2.34375v3.96094h-6.62109z"></path></g></g></svg>